<?xml version="1.0" encoding="iso-8859-1"?>
<!-- Generator: Adobe Illustrator 16.0.0, SVG Export Plug-In . SVG Version: 6.00 Build 0)  -->
<!DOCTYPE svg PUBLIC "-//W3C//DTD SVG 1.1//EN" "http://www.w3.org/Graphics/SVG/1.1/DTD/svg11.dtd">
<svg version="1.1" id="Capa_1" xmlns="http://www.w3.org/2000/svg" xmlns:xlink="http://www.w3.org/1999/xlink" x="0px" y="0px"
	 width="45.001px" height="45.001px" viewBox="0 0 45.001 45.001" style="enable-background:new 0 0 45.001 45.001;"
	 xml:space="preserve">
<g>
	<path d="M40.356,42.087l-1.125-5.896c-0.281-1.479-1.791-2.937-3.359-3.242l-6.471-1.271L28.3,29.421
		c-0.052-0.107-0.148-0.189-0.264-0.227c-0.104-0.031-0.295-0.006-0.322-0.021c-0.004-0.096-0.008-0.192-0.01-0.289
		c0.355-0.62,0.633-1.305,0.814-2.002c0.168-0.075,0.347-0.202,0.519-0.403c0.161-0.188,0.293-0.394,0.392-0.607
		c0.125-0.273,0.235-0.555,0.32-0.842l0.072-0.242c0.113-0.395,0.224-0.787,0.4-1.162c0.315-0.666,0.273-1.35,0.201-1.873
		c-0.055-0.398-0.219-0.7-0.492-0.909c0.149-0.577,0.266-1.215,0.334-1.884h0.234v-6.4c0.188,0.024,0.376,0.058,0.572,0.058
		c2.412,0,4.369-1.958,4.369-4.371c0-2.415-1.957-4.372-4.369-4.372c-0.84,0-1.613,0.248-2.277,0.656
		c-0.921-2.603-3.374-4.471-6.275-4.527V0.001c-0.004,0-0.013,0-0.019,0.001C22.493,0.002,22.485,0,22.479,0v0.004
		c-2.902,0.058-5.354,1.927-6.275,4.527c-0.665-0.409-1.439-0.656-2.277-0.656c-2.414,0-4.371,1.958-4.371,4.372
		s1.959,4.371,4.371,4.371c0.195,0,0.383-0.033,0.572-0.059v6.401h0.234c0.068,0.669,0.186,1.308,0.334,1.884
		c-0.273,0.209-0.438,0.512-0.492,0.909c-0.072,0.522-0.114,1.207,0.201,1.872c0.178,0.375,0.287,0.77,0.402,1.164l0.071,0.242
		c0.085,0.287,0.196,0.566,0.321,0.842c0.098,0.213,0.229,0.418,0.391,0.605c0.171,0.203,0.35,0.33,0.518,0.403
		c0.184,0.699,0.459,1.382,0.815,2.002c-0.002,0.104-0.006,0.203-0.01,0.306c-0.185,0.002-0.315,0.002-0.321,0.006
		c-0.115,0.035-0.211,0.117-0.264,0.225l-1.102,2.256l-6.47,1.271c-1.571,0.307-3.078,1.762-3.36,3.244l-1.125,5.896
		c-0.142,0.733,0.029,1.44,0.482,1.99c0.484,0.587,1.25,0.923,2.102,0.923h30.547c0.852,0,1.615-0.336,2.103-0.922
		C40.328,43.528,40.499,42.823,40.356,42.087z M17.135,40.851h-5.918v-0.926h5.918V40.851z M21.783,33.323l-0.82,1.678l-4.507-2.605
		l-0.188-0.108l0.062-0.125l0.099-0.203l0.239-0.49l0.22-0.446c0.041-0.049,0.064-0.103,0.076-0.158l0.312-0.641l0.675,0.389
		l0.78,0.453l0.572,0.33l0.57,0.33l0.93,0.536l1.168,0.677L21.783,33.323z M24.653,42.866c-0.373,0-0.676-0.303-0.676-0.676
		c0-0.375,0.303-0.676,0.676-0.676s0.678,0.301,0.678,0.676C25.331,42.563,25.026,42.866,24.653,42.866z M24.653,40.575
		c-0.373,0-0.676-0.303-0.676-0.676c0-0.375,0.303-0.678,0.676-0.678s0.678,0.305,0.678,0.678S25.026,40.575,24.653,40.575z
		 M24.653,38.284c-0.373,0-0.676-0.303-0.676-0.676c0-0.375,0.303-0.678,0.676-0.678s0.678,0.303,0.678,0.678
		C25.331,37.979,25.026,38.284,24.653,38.284z M28.681,32.315l-0.058,0.033l-0.079,0.045l-4.507,2.607l-0.829-1.699l-0.18-0.365
		l1.234-0.713l0.862-0.5l0.571-0.33l0.57-0.33l0.909-0.526l0.546-0.315l0.111,0.231l0.496,1.016l0.238,0.488l0.16,0.33
		L28.681,32.315z"/>
</g>
<g>
</g>
<g>
</g>
<g>
</g>
<g>
</g>
<g>
</g>
<g>
</g>
<g>
</g>
<g>
</g>
<g>
</g>
<g>
</g>
<g>
</g>
<g>
</g>
<g>
</g>
<g>
</g>
<g>
</g>
</svg>
