<?xml version="1.0" encoding="iso-8859-1"?>
<!-- Generator: Adobe Illustrator 19.0.0, SVG Export Plug-In . SVG Version: 6.00 Build 0)  -->
<svg version="1.1" id="Capa_1" xmlns="http://www.w3.org/2000/svg" xmlns:xlink="http://www.w3.org/1999/xlink" x="0px" y="0px"
	 viewBox="0 0 512 512" style="enable-background:new 0 0 512 512;" xml:space="preserve">
<g>
	<path style="fill:#FFB69E;" d="M476.884,184.664L476.884,184.664v-35.569c-0.132-26.146-21.844-47.417-48.401-47.417
		c-20.231,0-73.6,0-93.079,0l-44.099-5.157L315.045,68c7.115-8.548,5.954-21.246-2.595-28.362
		c-8.552-7.115-21.247-5.954-28.363,2.595l-47.519,57.089c-10.218,12.277-2.715,31.032,13.14,32.886l71.495,8.36V294.67h106.67
		V141.954h0.609c4.233,0,8.105,3.5,8.124,7.242v35.468v112.483c0,11.122,9.017,20.139,20.139,20.139s20.139-9.016,20.139-20.139
		V184.664z"/>
	<circle style="fill:#FFB69E;" cx="374.6" cy="41.738" r="41.738"/>
</g>
<g>
	<path style="fill:#414B82;" d="M379.541,286.893v200.941c0,13.347,10.819,24.166,24.166,24.166s24.166-10.82,24.166-24.166V286.893
		H379.541z"/>
	<path style="fill:#414B82;" d="M321.204,286.893v200.941c0,13.347,10.819,24.166,24.166,24.166s24.166-10.82,24.166-24.166V286.893
		H321.204z"/>
</g>
<path style="fill:#78BEFF;" d="M476.884,184.664v-35.569c-0.132-26.146-21.844-47.417-48.401-47.417h-35.389
	c0,0.001,0,0.002,0,0.003c0.453,10.113-8.931,18.726-18.726,18.726c-10.498,0-18.272-8.58-18.726-18.726c0-0.001,0-0.002,0-0.003
	h-20.238l-44.099-5.157l-9.226,39.323l39.125,4.692V294.67h106.67V141.954h0.609c4.233,0,8.105,3.5,8.124,7.242v35.468H476.884z"/>
<path style="fill:#C8A06E;" d="M247.164,220.65c-1.827,2.809-4.951,4.504-8.302,4.504H135.898V164.13h102.964
	c3.351,0,6.475,1.695,8.302,4.504l15.885,24.422c0.627,0.964,0.627,2.208,0,3.172L247.164,220.65z"/>
<path style="fill:#A56941;" d="M24.633,289.756c1.827,2.809,4.951,4.504,8.302,4.504h102.964v-61.024H32.935
	c-3.351,0-6.475,1.695-8.302,4.504L8.747,262.162c-0.627,0.964-0.627,2.208,0,3.172L24.633,289.756z"/>
<path style="fill:#733319;" d="M148.521,498.951V143.292c0-6.971-5.652-12.623-12.623-12.623c-6.971,0-12.623,5.652-12.623,12.623
	v355.659H148.521z"/>
<path style="fill:#592713;" d="M178.164,512H93.632c-6.971,0-12.623-5.652-12.623-12.623s5.652-12.623,12.623-12.623h84.532
	c6.971,0,12.623,5.652,12.623,12.623S185.135,512,178.164,512z"/>
<path style="fill:#C8D2DC;" d="M492.435,39.165c-5.543,4.334-5.644,7.358-5.644,12.599c0,1.915-1.008,4.132-5.946,4.132
	c-4.132,0-5.543-1.512-5.543-6.753c0-8.668,3.83-12.8,6.753-15.319c3.326-2.822,8.97-5.946,8.97-11.388
	c0-4.636-4.032-6.854-9.071-6.854c-10.28,0-8.063,7.76-13.506,7.76c-2.721,0-6.047-1.814-6.047-5.745
	c0-5.442,6.249-13.505,19.855-13.505c12.901,0,21.467,7.157,21.467,16.63S495.156,37.049,492.435,39.165z M488.706,70.61
	c0,4.132-3.427,7.76-7.761,7.76s-7.66-3.628-7.66-7.76c0-4.233,3.427-7.76,7.66-7.76S488.706,66.378,488.706,70.61z"/>
<g>
</g>
<g>
</g>
<g>
</g>
<g>
</g>
<g>
</g>
<g>
</g>
<g>
</g>
<g>
</g>
<g>
</g>
<g>
</g>
<g>
</g>
<g>
</g>
<g>
</g>
<g>
</g>
<g>
</g>
</svg>
