<svg height="511pt" viewBox="-55 0 511 511.99524" width="511pt" xmlns="http://www.w3.org/2000/svg"><path d="m103.617188 469.675781-.078126.078125-1.761718 1.921875-25.601563 27.28125c-3.039062 3.199219-7.277343 5.039063-11.679687 5.039063-4.078125 0-8-1.519532-10.957032-4.320313-6.402343-6.082031-6.722656-16.160156-.722656-22.640625l24.320313-25.917968c8.242187 6.878906 17.121093 13.117187 26.480469 18.558593zm0 0" fill="#434a54"/><path d="m304.496094 191.996094h52c22.640625 31.519531 36 70.238281 36 112 0 59.039062-26.636719 111.839844-68.636719 147.121094-8.242187 6.878906-17.121094 13.125-26.480469 18.558593-28.402344 16.71875-61.519531 26.320313-96.882812 26.320313-35.359375 0-68.476563-9.601563-96.878906-26.320313-9.359376-5.441406-18.230469-11.679687-26.480469-18.558593-42-35.28125-68.640625-88.082032-68.640625-147.121094 0-41.761719 13.363281-80.480469 36-112zm0 0" fill="#656d78"/><path d="m356.496094 191.996094h-32c22.640625 31.519531 36 70.238281 36 112 0 59.039062-26.636719 111.839844-68.636719 147.121094-8.242187 6.878906-17.121094 13.125-26.480469 18.558593-24.074218 14.167969-51.546875 23.152344-80.882812 25.582031 5.28125.441407 10.601562.738282 16 .738282 35.363281 0 68.480468-9.601563 96.882812-26.320313 9.359375-5.441406 18.230469-11.679687 26.480469-18.558593 42-35.28125 68.636719-88.082032 68.636719-147.121094 0-41.761719-13.359375-80.480469-36-112zm0 0" fill="#434a54"/><path d="m348.175781 477.035156c6 6.488282 5.683594 16.558594-.71875 22.640625-2.960937 2.800781-6.878906 4.320313-10.960937 4.320313-4.398438 0-8.636719-1.839844-11.679688-5.039063l-25.597656-27.28125-1.761719-1.921875-.078125-.078125c9.359375-5.441406 18.230469-11.679687 26.480469-18.558593zm0 0" fill="#353b44"/><path d="m304.496094 47.996094c8.800781 0 16 7.199218 16 16 0 8.800781-7.199219 16-16 16-8.796875 0-16-7.199219-16-16 0-8.800782 7.203125-16 16-16zm0 0" fill="#a0d468"/><path d="m136.496094 159.996094h-48c0-13.28125 10.722656-24 24-24 13.28125 0 24 10.71875 24 24zm0 0" fill="#a0d468"/><path d="m360.496094 159.996094h-320c-8.796875 0-16 7.199218-16 16 0 8.800781 7.203125 16 16 16h320c8.800781 0 16-7.199219 16-16 0-8.800782-7.199219-16-16-16zm0 0" fill="#ccd1d9"/><path d="m360.496094 159.996094h-32c8.800781 0 16 7.199218 16 16 0 8.800781-7.199219 16-16 16h32c8.800781 0 16-7.199219 16-16 0-8.800782-7.199219-16-16-16zm0 0" fill="#aab2bd"/><path d="m80.496094 59.996094c0 6.625-5.371094 12-12 12-6.625 0-12-5.375-12-12 0-6.628906 5.375-12 12-12 6.628906 0 12 5.371094 12 12zm0 0" fill="#a0d468"/><path d="m320.738281 135.996094c-4.425781 0-8.039062-3.578125-8.039062-8 0-4.425782 3.535156-8 7.949219-8h.089843c4.414063 0 8 3.574218 8 8 0 4.421875-3.585937 8-8 8zm0 0"/><path d="m200.496094 503.996094c-110.277344 0-200-89.722656-200-200 0-42.191406 12.976562-82.535156 37.539062-116.671875 2.574219-3.585938 7.566406-4.410157 11.167969-1.824219 3.582031 2.574219 4.40625 7.574219 1.824219 11.167969-22.59375 31.390625-34.53125 68.503906-34.53125 107.328125 0 101.464844 82.539062 184 184 184 101.464844 0 184-82.535156 184-184 0-38.816406-11.933594-75.929688-34.527344-107.328125-2.582031-3.585938-1.765625-8.585938 1.824219-11.167969 3.585937-2.5625 8.585937-1.761719 11.167969 1.824219 24.550781 34.144531 37.535156 74.488281 37.535156 116.671875 0 110.277344-89.71875 200-200 200zm0 0"/><path d="m360.496094 167.996094h-320c-4.421875 0-8-3.578125-8-8 0-4.425782 3.578125-8 8-8h320c4.425781 0 8 3.574218 8 8 0 4.421875-3.574219 8-8 8zm0 0"/><path d="m360.496094 199.996094h-320c-4.421875 0-8-3.578125-8-8 0-4.425782 3.578125-8 8-8h320c4.425781 0 8 3.574218 8 8 0 4.421875-3.574219 8-8 8zm0 0"/><path d="m40.496094 199.996094c-13.230469 0-24-10.769532-24-24 0-13.234375 10.769531-24 24-24 4.425781 0 8 3.574218 8 8 0 4.421875-3.574219 8-8 8-4.414063 0-8 3.582031-8 8 0 4.414062 3.585937 8 8 8 4.425781 0 8 3.574218 8 8 0 4.421875-3.574219 8-8 8zm0 0"/><path d="m360.496094 199.996094c-4.421875 0-8-3.578125-8-8 0-4.425782 3.578125-8 8-8 4.417968 0 8-3.585938 8-8 0-4.417969-3.582032-8-8-8-4.421875 0-8-3.578125-8-8 0-4.425782 3.578125-8 8-8 13.234375 0 24 10.765625 24 24 0 13.230468-10.765625 24-24 24zm0 0"/><path d="m64.496094 511.996094c-6.117188 0-11.941406-2.304688-16.40625-6.488282-9.664063-9.066406-10.160156-24.28125-1.105469-33.9375l24.3125-25.917968c3.023437-3.210938 8.082031-3.378906 11.3125-.359375 3.214844 3.023437 3.382813 8.085937.359375 11.308593l-24.3125 25.921876c-3.015625 3.207031-2.847656 8.289062.378906 11.3125 3.0625 2.878906 8.367188 2.726562 11.320313-.394532l27.34375-29.15625c3.007812-3.234375 8.0625-3.402344 11.300781-.386718 3.226562 3.007812 3.402344 8.074218.386719 11.304687l-27.386719 29.207031c-4.558594 4.832032-10.933594 7.585938-17.503906 7.585938zm0 0"/><path d="m336.503906 511.996094c-6.566406 0-12.941406-2.753906-17.484375-7.542969l-27.417969-29.242187c-3.015624-3.222657-2.839843-8.289063.382813-11.304688 3.21875-3.023438 8.296875-2.839844 11.304687.386719l27.375 29.183593c2.914063 3.070313 8.21875 3.246094 11.304688.367188 3.21875-3.023438 3.386719-8.105469.367188-11.3125l-24.316407-25.929688c-3.027343-3.222656-2.859375-8.285156.359375-11.308593 3.230469-3.007813 8.285156-2.851563 11.3125.359375l24.316406 25.925781c9.058594 9.65625 8.5625 24.875-1.09375 33.9375-4.464843 4.175781-10.289062 6.480469-16.410156 6.480469zm0 0"/><path d="m160.496094 263.996094c-4.421875 0-8-3.578125-8-8v-96c0-4.425782 3.578125-8 8-8 4.425781 0 8 3.574218 8 8v96c0 4.421875-3.574219 8-8 8zm0 0"/><path d="m232.496094 175.996094c-4.421875 0-8-3.578125-8-8v-8c0-4.425782 3.578125-8 8-8 4.425781 0 8 3.574218 8 8v8c0 4.421875-3.574219 8-8 8zm0 0"/><path d="m304.496094 207.996094c-4.421875 0-8-3.578125-8-8v-40c0-4.425782 3.578125-8 8-8 4.425781 0 8 3.574218 8 8v40c0 4.421875-3.574219 8-8 8zm0 0"/><path d="m88.496094 223.996094c-4.421875 0-8-3.578125-8-8v-56c0-4.425782 3.578125-8 8-8 4.425781 0 8 3.574218 8 8v56c0 4.421875-3.574219 8-8 8zm0 0"/><path d="m160.503906 127.996094c-2.933594 0-5.757812-1.617188-7.167968-4.425782-1.972657-3.949218-.375-8.757812 3.578124-10.734374.238282-.128907 7.625-4.105469 9.40625-12.625 1.753907-8.367188-2.429687-19.167969-12.078124-31.222657-13.023438-16.289062-18.128907-31.378906-15.167969-44.832031 3.511719-15.992188 17.253906-23.023438 17.832031-23.3125 3.953125-1.96875 8.765625-.375 10.734375 3.574219 1.960937 3.9375.394531 8.714843-3.511719 10.707031-.40625.207031-7.703125 4.183594-9.472656 12.644531-1.75 8.371094 2.433594 19.160157 12.082031 31.21875 13.023438 16.285157 18.128907 31.375 15.167969 44.832031-3.511719 16-17.25 23.039063-17.832031 23.328126-1.144531.574218-2.367188.847656-3.570313.847656zm0 0"/><path d="m232.503906 127.996094c-2.933594 0-5.757812-1.617188-7.167968-4.425782-1.972657-3.949218-.375-8.757812 3.578124-10.734374.238282-.128907 7.625-4.105469 9.40625-12.625 1.753907-8.367188-2.429687-19.167969-12.078124-31.222657-13.023438-16.289062-18.128907-31.378906-15.167969-44.832031 3.511719-15.992188 17.253906-23.023438 17.832031-23.3125 3.945312-1.96875 8.765625-.375 10.734375 3.574219 1.960937 3.9375.394531 8.714843-3.511719 10.707031-.40625.207031-7.703125 4.183594-9.472656 12.644531-1.75 8.371094 2.433594 19.160157 12.082031 31.21875 13.023438 16.285157 18.128907 31.375 15.167969 44.832031-3.511719 16-17.25 23.039063-17.832031 23.328126-1.144531.574218-2.367188.847656-3.570313.847656zm0 0"/><path d="m136.496094 167.996094c-4.421875 0-8-3.578125-8-8 0-8.824219-7.175782-16-16-16-8.824219 0-16 7.175781-16 16 0 4.421875-3.574219 8-8 8-4.421875 0-8-3.578125-8-8 0-17.648438 14.355468-32 32-32 17.648437 0 32 14.351562 32 32 0 4.421875-3.574219 8-8 8zm0 0"/><path d="m304.496094 87.996094c-13.230469 0-24-10.769532-24-24 0-13.234375 10.769531-24 24-24 13.234375 0 24 10.765625 24 24 0 13.230468-10.765625 24-24 24zm0-32c-4.414063 0-8 3.582031-8 8 0 4.414062 3.585937 8 8 8 4.417968 0 8-3.585938 8-8 0-4.417969-3.582032-8-8-8zm0 0"/><path d="m68.496094 79.996094c-11.03125 0-20-8.96875-20-20s8.96875-20 20-20c11.035156 0 20 8.96875 20 20s-8.964844 20-20 20zm0-24c-2.199219 0-4 1.800781-4 4 0 2.199218 1.800781 4 4 4 2.203125 0 4-1.800782 4-4 0-2.199219-1.796875-4-4-4zm0 0"/></svg>